Coordinates
version=1
nRows=29
nColumns=24
inDegrees=yes

Units are S.I. units (second, meters, Newtons, ...)
Angles are in degrees.

endheader
time	pelvis_tilt	pelvis_list	pelvis_rotation	pelvis_tx	pelvis_ty	pelvis_tz	hip_flexion_r	hip_adduction_r	hip_rotation_r	knee_angle_r	ankle_angle_r	subtalar_angle_r	mtp_angle_r	hip_flexion_l	hip_adduction_l	hip_rotation_l	knee_angle_l	ankle_angle_l	subtalar_angle_l	mtp_angle_l	lumbar_extension	lumbar_bending	lumbar_rotation
      0.92350000	      1.06572558	      3.00937686	     -4.63869156	     -0.14816292	      1.00770516	      0.26959569	    -14.88454598	     -0.36680088	      2.18199191	     -6.84429463	     11.81722404	     -9.49847739	      3.83032148	     17.63562583	      3.11732687	     -9.67902467	      1.72401108	     -0.30864783	     -7.66163936	     -0.01469676	     -4.86651538	     -2.07758514	     11.90241020
      0.92766667	      1.06745505	      3.00897459	     -4.66277820	     -0.14221778	      1.00721654	      0.26927720	    -14.91861755	     -0.42040459	      2.11593667	     -7.51527011	     11.93565957	     -9.30788899	      3.83094021	     17.54241924	      3.18978756	     -9.33580086	      1.74893111	     -0.31688428	     -7.73407796	      0.10109656	     -4.81768706	     -2.08779264	     11.93700592
      0.93183333	      1.09943353	      3.02892266	     -4.68618862	     -0.13625065	      1.00680975	      0.26895820	    -14.96167774	     -0.49937686	      2.03576891	     -8.23268181	     12.04079975	     -9.09017318	      3.85471386	     17.41465096	      3.28550890	     -8.95953555	      1.70517533	     -0.36975824	     -7.85067585	      0.23245161	     -4.80985838	     -2.12923767	     11.96939949
      0.93600000	      1.12088799	      3.05678077	     -4.70506790	     -0.13025834	      1.00642254	      0.26863326	    -14.96664166	     -0.58557515	      1.94810283	     -9.00402793	     12.13034453	     -8.87387108	      3.90317030	     17.30137190	      3.38773262	     -8.54928290	      1.58577996	     -0.45439934	     -8.00983547	      0.37088660	     -4.77960882	     -2.18013100	     11.99139719
      0.94016667	      1.15906438	      3.10354979	     -4.71258485	     -0.12426083	      1.00609735	      0.26830442	    -14.97118539	     -0.68847120	      1.86992621	     -9.81257471	     12.20871036	     -8.69808018	      3.96309051	     17.18625456	      3.51039181	     -8.13257485	      1.37330478	     -0.57309068	     -8.16553720	      0.48799485	     -4.78927963	     -2.27011327	     12.01023248
      0.94433333	      1.16791964	      3.15384321	     -4.74295158	     -0.11819962	      1.00577967	      0.26796656	    -14.89362032	     -0.80788677	      1.73743372	    -10.71716805	     12.23771163	     -8.40551873	      4.06659767	     17.07198107	      3.63400446	     -7.67618414	      1.16536491	     -0.75862694	     -8.44064121	      0.64388148	     -4.71754782	     -2.33883683	     12.02030141
      0.94850000	      1.22114741	      3.22036396	     -4.75999492	     -0.11214606	      1.00555087	      0.26762311	    -14.84483706	     -0.94334145	      1.60831330	    -11.65840842	     12.25007121	     -8.14766907	      4.21095823	     16.92379554	      3.77959461	     -7.21649343	      0.88620325	     -0.98164153	     -8.72748697	      0.82187396	     -4.71918626	     -2.44396321	     12.01928402
      0.95266667	      1.25503971	      3.30408828	     -4.76017840	     -0.10607264	      1.00532429	      0.26727810	    -14.75754746	     -1.08714442	      1.49940558	    -12.63628746	     12.23730196	     -7.97605582	      4.34522162	     16.82318932	      3.93989476	     -6.78956835	      0.51115073	     -1.21387172	     -8.96831844	      0.96081860	     -4.70634113	     -2.58783810	     12.01732535
      0.95683333	      1.27379951	      3.37204876	     -4.78565323	     -0.09997435	      1.00511716	      0.26690782	    -14.59292410	     -1.23234532	      1.33964185	    -13.72792386	     12.17042821	     -7.65428495	      4.55778175	     16.70241202	      4.08347481	     -6.31793218	      0.17601461	     -1.51096953	     -9.33266568	      1.14767823	     -4.64319661	     -2.67516759	     11.99840867
      0.96100000	      1.32381926	      3.45118073	     -4.78922945	     -0.09389466	      1.00498641	      0.26651598	    -14.44945420	     -1.38506831	      1.18120270	    -14.83688253	     12.04806275	     -7.37188709	      4.93667934	     16.57700856	      4.24410165	     -5.86420213	     -0.24198350	     -1.86178094	     -9.74770444	      1.43969627	     -4.64989359	     -2.78871058	     11.98106631
      0.96516667	      1.36907295	      3.55191539	     -4.80556998	     -0.08776511	      1.00488292	      0.26616363	    -14.26765266	     -1.56090940	      1.05961522	    -16.00189177	     11.81969028	     -7.31806050	      9.77359396	     16.44938451	      4.41850475	     -5.47531809	     -0.66810354	     -2.19196981	    -10.08528448	      4.81952783	     -4.62242767	     -2.94632404	     11.93148727
      0.96933333	      1.41461933	      3.66977474	     -4.82478527	     -0.08162485	      1.00480256	      0.26578855	    -14.03519268	     -1.76647961	      0.87638614	    -17.26750042	     11.64715162	     -7.01141420	      9.81020758	     16.33147071	      4.60776235	     -5.16192147	     -1.13121536	     -2.52704918	    -10.31060900	      4.85077120	     -4.59220061	     -3.11744758	     11.90856061
      0.97350000	      1.45487565	      3.78268249	     -4.83605799	     -0.07550919	      1.00474789	      0.26539380	    -13.76302719	     -1.96585566	      0.70247450	    -18.59094755	     11.42094579	     -6.74874687	      9.89735802	     16.22498832	      4.79359174	     -4.82370533	     -1.62059637	     -2.86633592	    -10.64140097	      4.88740951	     -4.56483104	     -3.27876233	     11.86387531
      0.97766667	      1.51743533	      3.90797138	     -4.84624369	     -0.06940015	      1.00475042	      0.26499013	    -13.47887184	     -2.18478033	      0.51625088	    -19.97335009	     11.14590218	     -6.47763102	     10.04340610	     16.09745950	      4.99314217	     -4.51749546	     -2.12419161	     -3.21282220	    -10.97689541	      4.92746856	     -4.56572302	     -3.45731102	     11.80913063
      0.98183333	      1.57214719	      4.02778732	     -4.83572566	     -0.06330512	      1.00475673	      0.26454836	    -13.15851578	     -2.39640655	      0.31564359	    -21.39891630	     10.77721715	     -6.23816884	     10.46928000	     15.97766699	      5.19283239	     -4.15348012	     -2.63804757	     -3.52815059	    -11.41700568	      5.01627573	     -4.56194932	     -3.63399285	     11.75627194
      0.98600000	      1.61184847	      4.16894843	     -4.86841458	     -0.05720802	      1.00478694	      0.26417861	    -12.76318562	     -2.64161031	      0.16341984	    -22.91856697	     10.40465533	     -6.03163146	     10.65736106	     15.88784076	      5.38821457	     -4.02228550	     -3.17947111	     -3.84084196	    -11.56418236	      5.04352369	     -4.52460537	     -3.83445541	     11.67029333
      0.99016667	      1.67097435	      4.30656236	     -4.86223668	     -0.05115420	      1.00484874	      0.26373091	    -12.36650062	     -2.88581542	     -0.04264284	    -24.46174482	      9.89660754	     -5.88345914	     15.21587806	     15.78645592	      5.59592593	     -3.79303708	     -3.74792937	     -4.11370421	    -11.88997434	      5.56018869	     -4.53302671	     -4.03097702	     11.56695061
      0.99433333	      1.71717312	      4.45678022	     -4.87722234	     -0.04509619	      1.00491408	      0.26331225	    -11.91087423	     -3.15148257	     -0.22662312	    -26.08074840	      9.40071978	     -5.65555720	     15.25816489	     15.69751768	      5.80250098	     -3.68066624	     -4.31567654	     -4.33318159	    -12.04430325	      5.56112134	     -4.51099480	     -4.23935983	     11.49947745
      0.99850000	      1.77029879	      4.61175512	     -4.88435857	     -0.03908060	      1.00500655	      0.26287984	    -11.42774163	     -3.42615157	     -0.41378538	    -27.74864866	      8.86363204	     -5.45121436	     15.33683024	     15.60427238	      6.01557104	     -3.56089154	     -4.89270285	     -4.51286338	    -12.23383445	      5.55701755	     -4.50600123	     -4.45472235	     11.40628318
      1.00266667	      1.81179133	      4.76961860	     -4.88436567	     -0.03310300	      1.00509199	      0.26242882	    -10.89964274	     -3.70689004	     -0.59740183	    -29.46046676	      8.28678322	     -5.25646980	     15.46255909	     15.53215845	      6.23045346	     -3.45394030	     -5.48923283	     -4.65521525	    -12.42764962	      5.54569444	     -4.49490183	     -4.67505953	     11.29999829
      1.00683333	      1.87618116	      4.94092496	     -4.89072852	     -0.02715174	      1.00522712	      0.26199160	    -10.36456117	     -4.00990868	     -0.77404430	    -31.20896443	      7.67099886	     -5.10286736	     15.60224600	     15.42234454	      6.45816538	     -3.37616681	     -6.05695832	     -4.74880669	    -12.57702114	      5.52867486	     -4.50767965	     -4.90961593	     11.18379692
      1.01100000	      1.93639256	      5.12239521	     -4.89539362	     -0.02124116	      1.00536447	      0.26155087	     -9.79726504	     -4.32540532	     -0.93141885	    -32.98708104	      7.01566125	     -4.98119594	     15.74265075	     15.31935064	      6.69561097	     -3.30392758	     -6.63042864	     -4.78645962	    -12.70385037	      5.50740001	     -4.52325253	     -5.15424062	     11.06076043
      1.01516667	      1.97552833	      5.28993804	     -4.88933126	     -0.01538520	      1.00547950	      0.26110056	     -9.17827411	     -4.62723351	     -1.09373656	    -34.79901959	      6.35436071	     -4.87786880	     15.91321915	     15.24282119	      6.91603599	     -3.25115474	     -7.21252483	     -4.78353024	    -12.83260232	      5.47469447	     -4.52372205	     -5.39730178	     10.92546967
      1.01933333	      2.03771173	      5.48334537	     -4.89110287	     -0.00955796	      1.00563736	      0.26065354	     -8.56222793	     -4.96244610	     -1.23233789	    -36.62422703	      5.67886345	     -4.82632569	     16.06961161	     15.12855800	      7.16658383	     -3.20371152	     -7.76558628	     -4.73697502	    -12.93089591	      5.43696055	     -4.54723714	     -5.65667351	     10.78335191
      1.02350000	      2.09426806	      5.67163178	     -4.88724640	     -0.00377646	      1.00579919	      0.26021769	     -7.92134390	     -5.29087831	     -1.36246116	    -38.45781345	      5.00313628	     -4.81925597	     16.21319283	     15.01205202	      7.41100891	     -3.15866344	     -8.30266568	     -4.63781108	    -13.02405025	      5.39204450	     -4.57263817	     -5.91650144	     10.63405605
      1.02766667	      2.14502194	      5.86076315	     -4.88467328	      0.00195836	      1.00596647	      0.25978523	     -7.25749330	     -5.61802918	     -1.46572503	    -40.29118462	      4.33697457	     -4.87322888	     16.32577572	     14.89037123	      7.65779629	     -3.11197431	     -8.81585487	     -4.50109064	    -13.10704770	      5.34277719	     -4.59721687	     -6.17504258	     10.48175096
      1.03183333	      2.21164792	      6.05714309	     -4.88246927	      0.00765201	      1.00617135	      0.25936702	     -6.59786831	     -5.95471446	     -1.56413614	    -42.11571526	      3.69917326	     -4.97282425	     16.39651568	     14.73445058	      7.91532701	     -3.06670761	     -9.29215608	     -4.32857971	    -13.18521942	      5.29245605	     -4.64358735	     -6.44670596	     10.32465317
      1.03600000	      2.24544175	      6.24286285	     -4.87305719	      0.01329518	      1.00633510	      0.25893484	     -5.89066176	     -6.27325681	     -1.64257994	    -43.92763711	      3.09948344	     -5.13781981	     16.43078579	     14.61032745	      8.16179179	     -3.02117973	     -9.76346386	     -4.12478932	    -13.26913110	      5.22994434	     -4.65385932	     -6.68841868	     10.15274849
      1.04016667	      2.34577421	      6.43920433	     -4.87497955	      0.01891363	      1.00662099	      0.25853870	     -5.25474311	     -6.60774928	     -1.71052625	    -45.69693912	      2.53872458	     -5.37283698	     16.41692078	     14.37647162	      8.42805701	     -2.95956714	    -10.15641755	     -3.87278589	    -13.33820086	      5.19832595	     -4.74446021	     -6.95034567	     10.02147538
